<svg xmlns="http://www.w3.org/2000/svg" xmlns:xlink="http://www.w3.org/1999/xlink" width="150" zoomAndPan="magnify" viewBox="0 0 112.5 112.499997" height="150" preserveAspectRatio="xMidYMid meet" version="1.0"><defs><g/><clipPath id="de4289d455"><path d="M 37.496094 0 L 74.828125 0 L 74.828125 37.335938 L 37.496094 37.335938 Z M 37.496094 0 " clip-rule="nonzero"/></clipPath></defs><g clip-path="url(#de4289d455)"><path fill="#000000" d="M 74.828125 18.664062 C 60.828125 21.242188 58.738281 23.332031 56.160156 37.332031 C 53.585938 23.332031 51.496094 21.242188 37.496094 18.664062 C 51.496094 16.089844 53.585938 14 56.160156 0 C 58.738281 14 60.828125 16.089844 74.828125 18.664062 Z M 74.828125 18.664062 " fill-opacity="1" fill-rule="nonzero"/></g><g fill="#000000" fill-opacity="1"><g transform="translate(3.116351, 91.048396)"><g><path d="M 29.542969 -56.605469 C 14.066406 -56.605469 1.488281 -43.859375 1.488281 -28.054688 C 1.488281 -12.246094 14.066406 0.578125 29.542969 0.578125 C 45.101562 0.578125 57.597656 -12.246094 57.597656 -28.054688 C 57.597656 -43.859375 45.101562 -56.605469 29.542969 -56.605469 Z M 43.527344 -5.542969 C 38.8125 -2.648438 28.632812 -10.261719 20.9375 -22.675781 C 13.242188 -35.085938 10.839844 -47.5 15.558594 -50.480469 C 20.359375 -53.457031 30.453125 -45.761719 38.148438 -33.351562 C 45.929688 -21.019531 48.246094 -8.523438 43.527344 -5.542969 Z M 43.527344 -5.542969 "/></g></g></g><g fill="#000000" fill-opacity="1"><g transform="translate(62.193454, 91.048396)"><g><path d="M 1.488281 -39.640625 C 1.488281 -28.714844 9.765625 -24.660156 21.101562 -21.351562 C 35.085938 -17.210938 42.949219 -10.59375 39.058594 -7.117188 C 32.109375 -0.992188 27.804688 -20.441406 15.476562 -20.441406 C 3.226562 -20.441406 0.660156 -9.019531 1.902344 0.0820312 L 3.722656 0.0820312 C 3.722656 -3.558594 4.550781 -5.875 8.6875 -5.875 C 12.828125 -5.875 18.207031 0.578125 26.398438 0.578125 C 37.074219 0.578125 45.183594 -7.613281 45.183594 -16.882812 C 45.183594 -28.382812 30.703125 -33.351562 23.75 -35.335938 C 9.765625 -39.226562 3.308594 -45.597656 7.28125 -48.90625 C 14.566406 -54.949219 17.378906 -35.667969 29.707031 -35.667969 C 42.039062 -35.667969 44.523438 -47.085938 43.363281 -56.191406 L 41.460938 -56.191406 C 41.460938 -52.546875 40.632812 -50.230469 36.496094 -50.230469 C 32.441406 -50.230469 28.136719 -56.605469 19.945312 -56.605469 C 9.433594 -56.605469 1.488281 -48.742188 1.488281 -39.640625 Z M 1.488281 -39.640625 "/></g></g></g><g fill="#000000" fill-opacity="1"><g transform="translate(10.198795, 111.653444)"><g><path d="M 12.683594 -9.433594 L 10.304688 -1.65625 L 7.191406 -9.328125 L 7.132812 -9.328125 L 6.589844 -7.972656 L 4 -1.625 L 1.609375 -9.433594 L 0.496094 -9.417969 L 3.445312 0.210938 L 3.535156 0.210938 L 6.710938 -7.640625 L 9.898438 0.210938 L 9.988281 0.210938 L 12.953125 -9.433594 Z M 12.683594 -9.433594 "/></g></g></g><g fill="#000000" fill-opacity="1"><g transform="translate(23.691331, 111.653444)"><g><path d="M 5.507812 -9.191406 L 5.507812 -9.433594 L 0.722656 -9.433594 L 0.722656 0.015625 L 5.507812 0.015625 L 5.507812 -0.226562 L 1.789062 -0.226562 L 1.789062 -4.800781 L 5.101562 -4.800781 L 5.101562 -5.039062 L 1.789062 -5.039062 L 1.789062 -9.191406 Z M 5.507812 -9.191406 "/></g></g></g><g fill="#000000" fill-opacity="1"><g transform="translate(29.843455, 111.653444)"><g><path d="M 4.394531 -5.023438 C 5.429688 -5.296875 6.605469 -5.925781 6.605469 -7.417969 C 6.605469 -9.328125 4.257812 -9.433594 3.582031 -9.433594 L 0.722656 -9.433594 L 0.722656 0.015625 L 3.308594 0.015625 C 3.714844 0.015625 6.933594 -0.046875 6.933594 -2.601562 C 6.933594 -4.242188 5.6875 -4.859375 4.394531 -5.023438 Z M 3.007812 -9.191406 C 4.453125 -9.191406 5.460938 -8.726562 5.460938 -7.25 C 5.460938 -5.777344 4.378906 -5.070312 2.617188 -5.070312 L 1.789062 -5.070312 L 1.789062 -9.191406 Z M 2.617188 -0.226562 L 1.789062 -0.226562 L 1.789062 -4.828125 L 3.007812 -4.828125 C 5.296875 -4.828125 5.792969 -3.640625 5.792969 -2.4375 C 5.792969 -0.660156 4.347656 -0.226562 2.617188 -0.226562 Z M 2.617188 -0.226562 "/></g></g></g><g fill="#000000" fill-opacity="1"><g transform="translate(70.229503, 111.089153)"><g><path d="M 7.867188 0.015625 L 9.027344 0.015625 L 4.890625 -9.613281 L 4.8125 -9.613281 L 0.527344 0.015625 L 0.859375 0.015625 L 2.558594 -3.777344 L 6.226562 -3.777344 Z M 2.664062 -4.03125 L 4.421875 -7.988281 L 6.121094 -4.03125 Z M 2.664062 -4.03125 "/></g></g></g><g fill="#000000" fill-opacity="1"><g transform="translate(79.796121, 111.089153)"><g><path d="M 3.582031 -9.433594 C 2.84375 -9.433594 0.722656 -9.433594 0.722656 -9.433594 L 0.722656 0.015625 L 1.789062 0.015625 L 1.789062 -4.378906 L 2.875 -4.378906 C 3.324219 -4.378906 6.605469 -4.363281 6.605469 -7.070312 C 6.605469 -9.148438 4.347656 -9.433594 3.582031 -9.433594 Z M 2.617188 -4.617188 L 1.789062 -4.617188 L 1.789062 -9.191406 L 3.007812 -9.191406 C 4.542969 -9.191406 5.460938 -8.558594 5.460938 -6.90625 C 5.460938 -5.21875 4.378906 -4.617188 2.617188 -4.617188 Z M 2.617188 -4.617188 "/></g></g></g><g fill="#000000" fill-opacity="1"><g transform="translate(87.031246, 111.089153)"><g><path d="M 3.582031 -9.433594 C 2.84375 -9.433594 0.722656 -9.433594 0.722656 -9.433594 L 0.722656 0.015625 L 1.789062 0.015625 L 1.789062 -4.378906 L 2.875 -4.378906 C 3.324219 -4.378906 6.605469 -4.363281 6.605469 -7.070312 C 6.605469 -9.148438 4.347656 -9.433594 3.582031 -9.433594 Z M 2.617188 -4.617188 L 1.789062 -4.617188 L 1.789062 -9.191406 L 3.007812 -9.191406 C 4.542969 -9.191406 5.460938 -8.558594 5.460938 -6.90625 C 5.460938 -5.21875 4.378906 -4.617188 2.617188 -4.617188 Z M 2.617188 -4.617188 "/></g></g></g><g fill="#000000" fill-opacity="1"><g transform="translate(94.26637, 111.089153)"><g><path d="M 0.375 -0.691406 L 0.375 -0.347656 C 0.375 -0.347656 1.292969 0.390625 2.917969 0.390625 C 4.542969 0.390625 6.09375 -0.738281 6.09375 -2.40625 C 6.09375 -5.777344 1.265625 -4.785156 1.265625 -7.523438 C 1.265625 -8.589844 2 -9.460938 3.292969 -9.460938 C 4.574219 -9.460938 5.402344 -8.847656 5.402344 -8.847656 L 5.386719 -9.160156 C 5.386719 -9.160156 4.484375 -9.71875 3.28125 -9.71875 C 2.089844 -9.71875 0.421875 -8.996094 0.421875 -7.117188 C 0.421875 -3.746094 5.234375 -5.007812 5.234375 -2.03125 C 5.234375 -0.570312 4.121094 0.152344 2.917969 0.152344 C 1.625 0.152344 0.902344 -0.285156 0.375 -0.691406 Z M 0.375 -0.691406 "/></g></g></g><path stroke-linecap="butt" transform="matrix(3.084834, -0.000000000000016068, 0.000000000000016068, 3.084834, 40.964614, 105.032395)" fill="none" stroke-linejoin="miter" d="M 0.0000745599 0.499808 L 8.232131 0.499808 " stroke="#000000" stroke-width="1" stroke-opacity="1" stroke-miterlimit="4"/></svg>